<svg t="1740890764102" class="icon" viewBox="0 0 1024 1024" version="1.1" xmlns="http://www.w3.org/2000/svg" p-id="5751" width="200" height="200"><path d="M725.333333 234.666667L768 384l134.912 42.666667L768 469.333333l-42.666667 131.797334L682.666667 469.333333l-128-42.666666 128-42.666667 42.666666-149.333333z" p-id="5752" fill="#13227a"></path><path d="M565.333333 285.013333a60.202667 60.202667 0 0 0-104.746666 0.597334l-134.442667 240.597333c62.421333 9.429333 113.664 37.546667 150.826667 82.773333 43.904 53.418667 65.28 126.976 66.944 212.352h229.248a53.333333 53.333333 0 0 0 46.762666-78.976l-52.224-95.274666a32 32 0 1 1 56.106667-30.762667l52.224 95.232c42.922667 78.208-13.653333 173.781333-102.826667 173.781333H252.074667c-89.6 0-146.133333-96.341333-102.4-174.549333L404.650667 254.378667c47.104-84.224 168.021333-84.906667 216.106666-1.28l-55.466666 31.872z m-85.461333 536.32c-1.621333-75.52-20.565333-133.077333-52.309333-171.690666-30.08-36.565333-74.368-59.434667-135.424-62.592l-86.613334 154.922666a53.333333 53.333333 0 0 0 46.592 79.36h227.754667z" p-id="5753" fill="#13227a"></path></svg>